<?xml version="1.0" encoding="UTF-8" standalone="no"?>
<!-- Created with Inkscape (http://www.inkscape.org/) -->
<!--
© Crown Copyright GCHQ

Licensed under the Apache License, Version 2.0 (the "License");
you may not use this file except in compliance with the License.
You may obtain a copy of the License at

    http://www.apache.org/licenses/LICENSE-2.0

Unless required by applicable law or agreed to in writing, software
distributed under the License is distributed on an "AS IS" BASIS,
WITHOUT WARRANTIES OR CONDITIONS OF ANY KIND, either express or implied.
See the License for the specific language governing permissions and
limitations under the License.
-->

<svg
   width="1080"
   height="1080"
   viewBox="0 0 285.75 285.75"
   version="1.1"
   id="svg5"
   inkscape:version="1.1.2 (b8e25be8, 2022-02-05)"
   sodipodi:docname="nix-bootstrap.svg"
   inkscape:export-filename="/Users/gchquser/nix-bootstrap.png"
   inkscape:export-xdpi="96"
   inkscape:export-ydpi="96"
   xmlns:inkscape="http://www.inkscape.org/namespaces/inkscape"
   xmlns:sodipodi="http://sodipodi.sourceforge.net/DTD/sodipodi-0.dtd"
   xmlns="http://www.w3.org/2000/svg"
   xmlns:svg="http://www.w3.org/2000/svg">
  <sodipodi:namedview
     id="namedview7"
     pagecolor="#ffffff"
     bordercolor="#666666"
     borderopacity="1.0"
     inkscape:pageshadow="2"
     inkscape:pageopacity="0.0"
     inkscape:pagecheckerboard="0"
     inkscape:document-units="px"
     showgrid="false"
     inkscape:zoom="0.59884978"
     inkscape:cx="589.46336"
     inkscape:cy="362.36133"
     inkscape:window-width="1440"
     inkscape:window-height="900"
     inkscape:window-x="0"
     inkscape:window-y="0"
     inkscape:window-maximized="0"
     inkscape:current-layer="layer1" />
  <defs
     id="defs2" />
  <g
     inkscape:label="Layer 1"
     inkscape:groupmode="layer"
     id="layer1">
    <path
       id="path3513"
       style="font-size:264.583px;line-height:1.25;fill:#5277c3;fill-opacity:1;stroke-width:0.441553"
       inkscape:label="Lambda"
       d="m 33.93818,16.873937 57.835496,86.399853 24.748794,39.22544 16.168,26.24763 -80.369644,117.00185 52.725254,10e-4 52.24331,-77.06576 37.85323,61.45854 33.62938,-21.86485 5.40871,8.31981 -2.70436,1.75854 c 1.84822,0.61764 3.51892,1.38304 5.01204,2.29735 1.50312,0.92968 2.82063,2.26457 3.95252,4.00549 2.10348,3.23539 2.5506,6.51863 1.33991,9.84835 -1.20068,3.34513 -3.87309,6.3644 -8.01746,9.05889 -1.45108,0.9434 -2.91342,1.65932 -4.38537,2.18364 h 30.52447 l -68.92685,-109.52837 -6.36227,4.13729 5.06372,7.78746 -5.63871,3.66568 -5.06372,-7.78747 -9.19714,5.97983 c -0.90898,0.59096 -1.69793,1.11507 -2.36583,1.57119 -0.6679,0.45611 -1.19644,0.97397 -1.5854,1.55568 -0.39891,0.56628 -0.58519,1.22474 -0.55818,1.97432 0.0525,0.75495 0.41971,1.65669 1.10086,2.70435 0.28047,0.43139 0.73789,0.93348 1.3735,1.50659 0.64564,0.58848 1.13603,0.9714 1.47041,1.14867 l 0.45094,0.69256 -5.70848,3.71091 c -0.81207,-0.74334 -1.60442,-1.57503 -2.37875,-2.49633 -0.78974,-0.91126 -1.65553,-2.09085 -2.59711,-3.53905 -2.10348,-3.2354 -3.01709,-6.07276 -2.73925,-8.51104 0.28787,-2.42287 2.01918,-4.66581 5.19294,-6.72923 l 12.13278,-7.88825 -2.2237,-3.42017 5.63871,-3.66568 2.22369,3.42018 6.48503,-4.2174 -26.2528,-41.71661 -7.09748,4.61279 5.06372,7.78875 -5.6387,3.66567 -5.06373,-7.78745 -9.19713,5.97981 c -0.90898,0.59099 -1.69794,1.11381 -2.36583,1.5699 -0.6679,0.45612 -1.19645,0.97527 -1.5854,1.55697 -0.39913,0.56629 -0.5839,1.22474 -0.5569,1.97433 0.0525,0.75496 0.41843,1.65541 1.09957,2.70306 0.28047,0.43139 0.73916,0.93479 1.3748,1.50788 0.64564,0.58851 1.13474,0.97036 1.46911,1.14738 l 0.45094,0.69386 -5.70719,3.71089 c -0.81207,-0.74333 -1.6057,-1.57502 -2.38004,-2.49633 -0.78973,-0.91127 -1.65552,-2.09082 -2.59711,-3.53905 -2.10347,-3.23538 -3.01579,-6.07276 -2.73795,-8.51103 0.28787,-2.4229 2.01789,-4.66581 5.19164,-6.72924 l 12.13278,-7.88824 -2.2237,-3.42018 5.63871,-3.66567 2.2237,3.42018 7.22152,-4.69419 -57.396183,-91.206481 0.004,-0.01422 -1.580232,-2.387796 c -0.0026,-0.004 -0.009,-0.0046 -0.01422,-0.0013 l -1.681013,1.091821 c -0.0053,0.0033 1.692633,-1.094681 1.695233,-1.090521 l 1.576232,2.402016 -11.261911,7.321007 c 1.848213,0.617639 3.518926,1.384353 5.012038,2.298639 1.503114,0.92968 2.820637,2.264542 3.952521,4.005492 2.133528,3.281593 2.590324,6.579276 1.369619,9.893577 -1.205296,3.304299 -3.887397,6.309172 -8.04717,9.01366 -4.082734,2.654409 -8.146859,3.685287 -12.192216,3.093276 -4.035328,-0.576583 -7.149503,-2.551491 -9.34314,-5.92555 -0.941562,-1.448205 -1.613904,-2.819823 -2.016962,-4.114032 -0.403058,-1.294183 -0.632928,-2.624639 -0.68869,-3.991282 l -1.519501,0.494868 -5.18389,-7.972229 34.633331,-22.517352 -0.771377,-1.224905 z m 47.304915,19.710918 -13.034664,8.473568 c 0.174981,0.741105 0.399644,1.406977 0.673183,1.996289 0.273539,0.589305 0.655268,1.260761 1.146087,2.015666 1.432382,2.203163 3.145943,3.42347 5.141253,3.660505 1.995336,0.237061 4.286916,-0.485342 6.875242,-2.168134 2.310977,-1.502493 3.835618,-3.051883 4.572727,-4.648958 0.737076,-1.597082 0.449043,-3.404663 -0.863121,-5.422929 -0.510851,-0.785739 -1.159775,-1.514526 -1.947189,-2.186227 -0.771986,-0.681697 -1.625912,-1.255337 -2.563518,-1.71978 z M 99.5663,60.217288 c 1.03223,-0.0053 2.05709,0.104995 3.07519,0.330776 4.08236,0.918633 7.57667,3.611563 10.48148,8.079474 2.94498,4.529521 3.98539,8.828703 3.12299,12.896407 -0.85236,4.083138 -3.41257,7.511775 -7.68021,10.286375 -4.26764,2.774698 -8.44427,3.715142 -12.532037,2.821933 -4.062305,-0.887824 -7.556635,-3.580754 -10.48148,-8.079474 -2.92497,-4.498719 -3.973194,-8.792389 -3.146253,-12.880899 0.852371,-4.083132 3.411318,-7.511776 7.678923,-10.286375 3.223841,-2.095999 6.384761,-3.153213 9.481397,-3.168217 z m 2.85553,9.263032 c -0.7579,0.004 -1.60556,0.145336 -2.54155,0.4251 -1.237951,0.388405 -2.649903,1.097649 -4.236777,2.129374 -1.417404,0.92153 -2.564768,1.854353 -3.442146,2.79739 -0.861944,0.933035 -1.443211,1.858898 -1.74433,2.778007 -0.280287,0.883649 -0.339245,1.754438 -0.175722,2.612611 0.173426,0.873601 0.545437,1.749947 1.116371,2.628125 0.490819,0.754932 1.080336,1.390803 1.767583,1.908429 0.712652,0.523023 1.524225,0.827788 2.4356,0.914802 1.013069,0.108514 2.067082,-0.006 3.16176,-0.344994 1.120109,-0.333694 2.504281,-1.036891 4.152791,-2.1087 1.52525,-0.991641 2.71424,-1.961359 3.56619,-2.909794 0.85195,-0.948436 1.42536,-1.870118 1.72107,-2.763797 0.31129,-0.903674 0.37226,-1.78651 0.18348,-2.650088 -0.18883,-0.863572 -0.54384,-1.69648 -1.06469,-2.497621 -0.52087,-0.801141 -1.0947,-1.447987 -1.72107,-1.939435 -0.61636,-0.476014 -1.43341,-0.78879 -2.45111,-0.938062 -0.23283,-0.02878 -0.47481,-0.04267 -0.72745,-0.04135 z m 18.29996,23.275815 c 1.03222,-0.0053 2.05709,0.104995 3.07519,0.330777 4.08235,0.918632 7.57537,3.611557 10.48018,8.079478 2.94478,4.52952 3.98669,8.82869 3.12429,12.8964 -0.85237,4.08313 -3.41258,7.51178 -7.68021,10.28638 -4.26762,2.77467 -8.4456,3.71516 -12.53334,2.82193 -4.06233,-0.88782 -7.55532,-3.58075 -10.48018,-8.07947 -2.92477,-4.49872 -3.97449,-8.79239 -3.14755,-12.8809 0.8524,-4.08311 3.41261,-7.511758 7.68022,-10.286378 3.22383,-2.095978 6.38475,-3.153219 9.4814,-3.168217 z m 2.85553,9.263035 c -0.75791,0.004 -1.60557,0.14535 -2.54155,0.4251 -1.23796,0.3884 -2.64991,1.09767 -4.23679,2.12937 -1.4174,0.92153 -2.56477,1.85433 -3.44214,2.79739 -0.86195,0.933 -1.44321,1.8589 -1.74433,2.778 -0.28029,0.88366 -0.339,1.75442 -0.17573,2.61262 0.17343,0.87357 0.54545,1.74995 1.11637,2.62813 0.49083,0.7549 1.08035,1.3908 1.76759,1.90842 0.71266,0.523 1.52422,0.82779 2.4356,0.91481 1.01307,0.10851 2.06708,-0.007 3.16176,-0.34629 1.12011,-0.33367 2.50431,-1.03563 4.1528,-2.10741 1.52527,-0.99164 2.71426,-1.96136 3.56619,-2.9098 0.85193,-0.94843 1.42534,-1.87011 1.72107,-2.76379 0.31129,-0.90371 0.37225,-1.78781 0.18347,-2.65138 -0.18883,-0.86358 -0.54384,-1.69519 -1.06468,-2.49633 -0.52088,-0.80114 -1.09471,-1.44801 -1.72108,-1.93943 -0.61636,-0.47605 -1.43343,-0.78879 -2.4511,-0.93807 -0.23286,-0.0288 -0.47482,-0.0427 -0.72745,-0.0413 z m 32.53109,43.65603 c 1.26055,0.006 2.58666,0.28911 3.97837,0.85149 3.20648,1.29081 6.14122,3.98519 8.80562,8.08335 1.26211,1.94123 2.26959,3.92828 3.02093,5.96044 0.77676,2.03759 1.26741,3.70204 1.47169,4.99395 l -6.56385,4.2678 -0.46515,-0.71712 c 0.0461,-1.78342 -0.18595,-3.63889 -0.69385,-5.56635 -0.48248,-1.92205 -1.24951,-3.69154 -2.30122,-5.30922 -0.87145,-1.34036 -1.79174,-2.35245 -2.76251,-3.03642 -0.96073,-0.6686 -1.78096,-0.78315 -2.45885,-0.34241 -0.61627,0.40066 -0.95071,0.91516 -1.00396,1.54147 -0.0531,0.62634 0.25991,1.81387 0.93806,3.56489 0.38142,0.95754 0.80337,1.97759 1.26496,3.0584 0.487,1.08617 0.92725,2.20282 1.32181,3.34911 0.85233,2.55836 1.00235,4.76139 0.45094,6.61036 -0.53599,1.83896 -1.7199,3.35491 -3.55326,4.54688 -2.68076,1.7429 -5.62685,1.94797 -8.83793,0.61633 -3.19568,-1.34166 -6.15056,-4.0994 -8.86507,-8.27458 -1.50248,-2.311 -2.64892,-4.54718 -3.43956,-6.70726 -0.79064,-2.16007 -1.29551,-3.97977 -1.51304,-5.4604 l 6.84035,-4.44739 0.49617,0.76233 c -0.0212,0.60629 -0.0337,1.29387 -0.0388,2.06348 0.0216,0.77498 0.15779,1.79392 0.4083,3.0558 0.20658,1.09316 0.53402,2.27105 0.98328,3.53518 0.46467,1.25415 1.10354,2.50561 1.91489,3.75354 1.06178,1.63311 2.02522,2.72656 2.89041,3.28192 0.88063,0.54542 1.67522,0.58865 2.38392,0.12792 0.63169,-0.41069 0.93472,-0.93775 0.91223,-1.58024 -0.008,-0.65252 -0.30173,-1.71151 -0.88122,-3.17597 -0.262,-0.7064 -0.66069,-1.64063 -1.19777,-2.80385 -0.51167,-1.15784 -0.93256,-2.24306 -1.26237,-3.25607 -0.91629,-2.75788 -1.09817,-5.12764 -0.54527,-7.10912 0.56833,-1.99149 1.82265,-3.61814 3.76387,-4.88024 1.40393,-0.91276 2.91714,-1.36549 4.53784,-1.358 z m 36.78338,47.41733 5.41,8.31851 -3.81426,2.47953 c 2.76345,0.8117 4.84062,1.7308 6.23048,2.75605 1.4053,1.01522 2.47867,2.09273 3.2199,3.23282 0.19031,0.29271 0.39776,0.62805 0.6228,1.00783 0.22498,0.37976 0.41254,0.71822 0.56206,1.01559 l -7.92701,5.15417 -0.48066,-0.73908 c -0.10711,-0.43449 -0.38545,-1.06454 -0.8347,-1.89033 -0.4492,-0.82582 -0.84427,-1.50089 -1.18484,-2.02472 -0.77126,-1.18629 -1.52906,-2.18368 -2.27409,-2.99249 -0.74506,-0.80884 -1.64312,-1.61802 -2.69402,-2.42526 l -17.37869,11.29937 -5.40871,-8.3198 z m 14.98185,24.25522 c 0.80207,0.72793 1.9979,1.97796 3.58815,3.74967 1.61568,1.7771 3.06998,3.65899 4.36212,5.64645 3.07511,4.72983 4.56157,8.61818 4.46031,11.66504 -0.0759,3.05229 -1.66992,5.59095 -4.78205,7.61432 l -17.65648,11.47898 -5.36349,-8.25003 2.74958,-1.78826 c -0.62942,-0.22644 -1.39809,-0.51631 -2.30639,-0.86829 -0.90834,-0.35195 -1.69109,-0.7293 -2.34903,-1.13446 -0.90063,-0.57615 -1.72101,-1.24897 -2.46145,-2.01696 -0.7558,-0.75799 -1.47409,-1.66058 -2.15521,-2.70824 -1.60266,-2.46505 -2.18259,-5.02595 -1.73917,-7.6815 0.44347,-2.65556 1.85125,-4.75384 4.22387,-6.29638 1.895,-1.23205 3.7194,-1.81551 5.47203,-1.7495 1.75261,0.066 3.48147,0.65191 5.18647,1.75725 1.69493,1.0899 3.42938,2.67928 5.20456,4.76912 1.7752,2.08987 3.52882,4.31548 5.26012,6.67497 l 0.13825,-0.0905 c 1.43283,-0.93155 2.03872,-2.15839 1.81669,-3.67988 -0.20663,-1.5315 -1.05134,-3.43735 -2.5338,-5.71753 -0.89148,-1.3712 -2.08992,-2.67435 -3.59461,-3.90988 -1.48929,-1.24555 -2.58444,-2.12179 -3.2871,-2.62942 l -0.49616,-0.76233 z m -11.3123,16.77399 c -0.63501,0.008 -1.28374,0.22763 -1.94719,0.65897 -0.53922,0.3506 -0.9486,0.68216 -1.22749,0.99491 -0.27888,0.31274 -0.45166,0.75424 -0.51942,1.3244 -0.0778,0.55468 -0.0335,1.12789 0.13309,1.72107 0.18187,0.58316 0.61353,1.39829 1.29468,2.44594 0.54088,0.83194 1.25632,1.56179 2.14617,2.18881 0.89987,0.64239 1.83755,1.10768 2.81289,1.39417 l 5.40742,-3.51579 c -0.82367,-1.06458 -1.7468,-2.19756 -2.76767,-3.39692 -1.00547,-1.20938 -1.83603,-2.08272 -2.49245,-2.62037 -0.80282,-0.66167 -1.60309,-1.0505 -2.40201,-1.16676 -0.14502,-0.021 -0.2915,-0.0304 -0.43802,-0.0284 z m 30.66401,26.99833 -13.05791,8.48908 c 0.14492,0.69486 0.39259,1.37883 0.74166,2.05055 0.34903,0.67175 0.72344,1.3154 1.12413,1.93169 1.43237,2.20311 3.13807,3.42768 5.11798,3.67471 1.99534,0.23709 4.28693,-0.48534 6.87524,-2.16813 2.52667,-1.64271 4.08015,-3.26593 4.6593,-4.86991 0.57913,-1.604 0.26234,-3.33779 -0.94969,-5.20198 -0.51082,-0.78571 -1.15977,-1.51452 -1.94719,-2.18623 -0.77198,-0.68172 -1.6259,-1.25536 -2.56352,-1.71978 z m -17.703,11.50999 -9.17388,5.96432 4.40734,7.15562 h 13.4533 c -0.74441,-0.30927 -1.45787,-0.67149 -2.12679,-1.1099 -1.52779,-1.00135 -2.81259,-2.30373 -3.85432,-3.90601 -0.96161,-1.47904 -1.61641,-2.83916 -1.96398,-4.08173 -0.36298,-1.23255 -0.6104,-2.57321 -0.74167,-4.0223 z"
       sodipodi:nodetypes="ccccccccccccscsccccccccsccscccccccccccccccccccsccsccccccccccccccccccccccscscssccccccccsccscsccccccccccscscscccscccssccsccssccccccccscccscccccccsscccccccscscccccscscccccscssccccccscscccccsssccccssccccssccccccscccccsccsssscscccsccccsssccsccccccssccsscsssccccccsscc" />
    <path
       id="rect10250"
       style="fill:#5277c3;fill-opacity:1;stroke-width:0.661552"
       d="M 33.937808,16.873362 V 57.732009 H 56.309159 V 16.873362 Z"
       sodipodi:nodetypes="ccccc"
       inkscape:label="Top link" />
    <path
       id="rect10250-0"
       style="fill:#5277c3;fill-opacity:1;stroke-width:0.661552"
       d="M 38.770249,57.732009 V 86.544457 H 33.937808 V 127.4031 H 56.309159 V 86.544457 H 51.476718 V 57.732009 Z"
       inkscape:label="Mid link" />
    <path
       id="rect10250-4"
       style="fill:#5277c3;fill-opacity:1;stroke-width:0.661552"
       d="m 38.770249,127.4031 v 28.81245 H 33.937808 V 197.0742 H 56.309159 V 156.21555 H 51.476718 V 127.4031 Z"
       inkscape:label="Bottom link" />
    <path
       id="path10733"
       style="fill:#5277c3;fill-opacity:1;stroke-width:0.120473"
       inkscape:label="Hook"
       d="m 33.558303,191.29135 c -1.576527,0 -2.993719,0.96046 -3.579108,2.42397 l -3.85561,9.63774 c -0.368055,0.91861 -0.368055,1.94468 0,2.86329 l 3.85561,9.63774 c 0.585389,1.46351 2.002581,2.42397 3.579108,2.42397 h 1.927805 c 0,2.12901 1.725343,3.85432 3.85432,3.85432 h 1.927812 v 1.48074 c 0,4.58461 2.508834,8.77071 6.389411,10.66625 2.003811,0.97979 3.248331,2.97289 3.248331,5.20069 0,3.08052 -2.702934,5.78342 -5.783422,5.78342 -3.187858,0 -5.782125,-2.59332 -5.782132,-5.78213 0,-2.129 -1.72529,-3.85562 -3.85432,-3.85562 -2.129003,0 -3.85561,1.72662 -3.85561,3.85562 0,7.44019 6.052773,13.49206 13.492062,13.49206 7.314044,0 13.493352,-6.17928 13.493352,-13.49335 0,-5.19734 -2.902193,-9.84426 -7.574265,-12.12761 -1.25365,-0.61272 -2.063477,-2.07994 -2.063477,-3.73933 v -1.48074 h 1.927812 c 2.129003,0 3.85561,-1.72531 3.85561,-3.85432 h 1.927805 c 1.576527,0 2.993726,-0.96046 3.579108,-2.42397 l 3.855617,-9.63774 c 0.368048,-0.91861 0.366784,-1.94468 -0.0013,-2.86329 l -3.854321,-9.63774 c -0.585381,-1.46351 -2.00258,-2.42397 -3.579107,-2.42397 z m 0.489701,5.67618 h 3.909884 l 5.21102,7.81717 -5.21102,7.81718 h -3.909884 l 5.212317,-7.81718 z m 5.212317,0 h 3.908587 l 10.423336,15.63435 h -3.908587 l -3.257374,-4.88541 -3.257375,4.88541 h -3.908587 l 5.21102,-7.81718 z m 8.251325,4.55981 h 8.68676 v 2.60615 h -6.948893 z m 2.606155,3.90858 h 6.080605 v 2.60616 h -4.342738 z" />
    <g
       aria-label="nix"
       id="text11415"
       style="font-size:22.5778px;line-height:1.25;font-family:'.SF NS Mono';-inkscape-font-specification:'.SF NS Mono';fill:#5277c3;stroke-width:0.264583"
       inkscape:label="nix"
       transform="matrix(1.3894703,2.1371456,-2.1371456,1.3894703,248.92422,-351.69661)">
      <path
         d="m 100.34154,131.42992 h -3.990805 v -6.14055 c 0,-0.49977 -0.02572,-0.99586 -0.07717,-1.48828 -0.05145,-0.49977 -0.139641,-0.86724 -0.264584,-1.10243 -0.146991,-0.27193 -0.363802,-0.47037 -0.650434,-0.59532 -0.279283,-0.12494 -0.672483,-0.18741 -1.179602,-0.18741 -0.360128,0 -0.727605,0.0588 -1.102432,0.17639 -0.367477,0.11759 -0.768027,0.30501 -1.20165,0.56224 v 8.77536 l -3.968703,3e-5 -5.1e-5,-12.38034 h 3.968754 v 1.36701 c 0.705556,-0.55121 1.381714,-0.97381 2.028474,-1.26779 0.654109,-0.29399 1.378039,-0.44098 2.17179,-0.44098 1.337617,0 2.381253,0.38953 3.130906,1.16858 0.757005,0.77905 1.135507,1.94396 1.135507,3.49471 z"
         style="font-weight:bold;font-family:'Noto Sans Gothic';-inkscape-font-specification:'Noto Sans Gothic Bold'"
         id="path22058"
         sodipodi:nodetypes="ccscccsccccccccscsc" />
      <path
         d="m 107.97037,131.42992 h -3.96876 v -12.38031 h 3.96876 z m 0.11024,-14.1442 h -4.18924 v -3.00964 h 4.18924 z"
         style="font-weight:bold;font-family:'Noto Sans Gothic';-inkscape-font-specification:'Noto Sans Gothic Bold'"
         id="path22060" />
      <path
         d="m 124.66118,131.42992 h -4.63021 l -2.64584,-3.70417 -2.71198,3.70417 h -4.54202 l 4.88377,-6.18465 -4.8066,-6.19566 h 4.63022 l 2.60173,3.63802 2.61277,-3.63802 h 4.55304 l -4.81763,6.09645 z"
         style="font-weight:bold;font-family:'Noto Sans Gothic';-inkscape-font-specification:'Noto Sans Gothic Bold'"
         id="path22062" />
    </g>
  </g>
</svg>
